PathFileType	4	(X/Y/Z)	D:\TRACE\v60_Jaco2_6-2-23\JustBodyDRS_Motion1_8-platform.trc
DataRate	CameraRate	NumFrames	NumMarkers	Units	OrigDataRate	OrigDataStartFrame	OrigNumFrames
100.00	100.00	      53	5	mm	100.00	3357	      6712
Frame#	Time	Left_Front			Right_Front			Left_Aft			Right_Aft			Post			
		X1	Y1	Z1	X2	Y2	Z2	X3	Y3	Z3	X4	Y4	Z4	X5	Y5	Z5	

3357	33.560	-837.40869	33.39631	-632.37653	732.74066	33.92664	-637.79657	-745.21039	-9.15612	502.14499	697.72699	-10.21199	512.44122	-50.65784	1342.98987	-908.67438	
3358	33.570	-838.18115	33.74541	-632.51355	731.94031	34.25524	-637.65186	-745.95331	-9.46796	502.00348	696.60132	-10.58716	512.35016	-51.28452	1343.38696	-907.87836	
3359	33.580	-838.86731	34.21712	-632.35364	731.09882	34.61380	-637.35980	-746.93201	-9.64317	502.12964	696.00537	-10.79841	512.28802	-51.99312	1343.82617	-906.88464	
3360	33.590	-839.36249	34.67142	-632.09857	730.30139	35.17779	-637.41443	-747.66840	-9.72754	502.28561	695.26367	-11.04145	512.64465	-52.76445	1344.45032	-905.42120	
3361	33.600	-840.25488	35.07003	-631.66431	729.87988	35.53578	-637.39362	-748.72040	-9.50196	501.42780	694.63110	-11.26311	512.62708	-53.18528	1344.87268	-904.38446	
3362	33.610	-840.76709	35.23501	-631.78497	729.29852	35.60992	-637.26520	-749.29681	-9.64021	501.61823	694.13959	-11.47171	512.61908	-53.77849	1345.30493	-903.39020	
3363	33.620	-841.41809	35.23415	-631.83978	728.57269	35.48539	-637.08575	-749.93951	-9.69283	501.87299	693.44678	-11.75468	512.81592	-54.44383	1345.54614	-902.51721	
3364	33.630	-842.29193	35.43678	-631.91791	727.73523	35.95955	-637.01843	-750.56616	-10.22888	502.13684	692.78680	-12.02312	512.94623	-55.19852	1345.98218	-902.03461	
3365	33.640	-842.58582	35.71704	-631.54138	727.09528	36.35509	-636.95087	-751.08099	-10.44638	502.29532	691.88959	-12.24662	512.89880	-55.73793	1346.52075	-901.77197	
3366	33.650	-843.50781	36.21465	-631.14655	726.67914	36.78061	-636.74164	-751.81561	-10.66270	502.28784	691.29462	-12.69761	512.88226	-56.29967	1347.12488	-901.41260	
3367	33.660	-844.03827	36.56730	-631.16199	726.05133	37.28250	-636.76703	-752.56793	-10.77445	502.39963	690.88843	-12.87452	513.08551	-56.67527	1347.69946	-901.08099	
3368	33.670	-844.44379	36.81829	-631.10901	725.39081	37.68564	-636.66724	-752.64215	-11.36583	502.99542	690.64771	-12.97963	513.11884	-57.28667	1348.04407	-900.42145	
3369	33.680	-844.81671	37.00021	-631.09119	724.80231	37.66012	-636.71899	-753.14014	-11.50387	503.15762	689.61243	-13.27696	513.33228	-58.17747	1348.34656	-899.38574	
3370	33.690	-845.67035	37.13879	-631.23950	724.27185	37.77072	-636.59064	-753.76923	-11.73750	503.18924	688.88837	-13.42425	513.13672	-58.52109	1348.56726	-898.74854	
3371	33.700	-846.13971	37.68693	-631.02997	723.82770	38.05915	-636.48059	-754.24286	-11.96471	503.20361	688.24579	-13.75295	513.01935	-59.26403	1348.77222	-897.80457	
3372	33.710	-846.78271	38.11792	-631.04480	723.18250	38.34307	-636.36035	-754.76147	-12.07853	503.18967	687.90704	-13.89701	513.04456	-59.70190	1349.18262	-897.11353	
3373	33.720	-847.15192	38.53668	-631.00720	722.77838	38.57204	-636.36652	-755.27692	-12.14941	503.16141	687.70380	-13.98295	512.97284	-60.24477	1349.53662	-896.44940	
3374	33.730	-847.68384	38.29473	-630.77264	722.48169	38.70397	-636.36621	-755.63898	-12.17021	503.20279	687.17706	-14.12188	512.88495	-60.83569	1349.83337	-895.97931	
3375	33.740	-848.10669	38.33999	-630.99554	722.01910	38.90791	-636.32593	-756.05347	-12.05531	503.25235	686.33270	-14.37076	512.97736	-61.07878	1350.13354	-895.83081	
3376	33.750	-848.35382	38.49052	-630.78357	721.51434	39.13251	-636.28662	-756.70563	-12.54911	503.26129	685.74762	-14.83548	512.96692	-61.26467	1350.51465	-895.71289	
3377	33.760	-848.65033	38.78219	-630.69275	720.97235	39.30779	-636.21539	-757.10583	-12.76613	503.34848	685.33765	-15.03292	512.99841	-61.47534	1350.89294	-895.66644	
3378	33.770	-848.88232	39.07879	-630.70593	720.65771	39.57358	-635.99866	-757.25879	-12.84733	503.45178	685.25970	-15.09556	513.04688	-61.72882	1351.17285	-895.65466	
3379	33.780	-849.26831	39.27764	-630.66504	720.53644	39.86283	-635.87799	-757.13580	-13.64275	503.81091	685.11548	-15.18736	513.07727	-62.14997	1351.44824	-895.05261	
3380	33.790	-849.67535	39.70104	-630.55640	720.56342	40.01264	-635.64563	-758.04761	-12.71500	503.51633	684.92438	-15.28053	513.12067	-62.68818	1351.90344	-894.57269	
3381	33.800	-850.16785	39.80870	-630.61761	720.18188	40.18358	-635.75482	-758.35187	-12.84945	503.62994	684.41205	-15.59298	513.01886	-62.89926	1352.06238	-894.02234	
3382	33.810	-850.30719	39.78364	-630.45685	719.87115	40.37827	-635.72931	-758.51978	-13.09053	503.70474	684.05591	-15.80952	512.97961	-63.50537	1352.01990	-892.81445	
3383	33.820	-850.49512	39.91753	-630.54633	719.74664	40.45945	-635.62006	-758.88202	-13.17249	503.87802	683.84027	-15.84886	513.01569	-63.01337	1351.97925	-891.93250	
3384	33.830	-850.59149	40.01754	-630.48633	719.62042	40.58625	-635.62964	-759.26373	-12.93168	503.76678	683.71686	-15.89198	513.03497	-63.25795	1352.31262	-891.06628	
3385	33.840	-850.63074	40.30467	-630.48370	719.59021	40.82768	-635.57446	-759.24182	-12.94864	503.83344	683.61163	-15.94321	513.06232	-63.59077	1352.56128	-890.68103	
3386	33.850	-850.64063	40.15131	-630.31329	719.55725	40.99421	-635.61261	-758.49384	-13.94337	503.50262	683.53833	-16.02218	513.03180	-63.58776	1352.64624	-890.66541	
3387	33.860	-850.68176	40.10468	-630.35223	719.43225	40.97689	-635.65527	-758.59338	-14.05012	503.51865	682.96704	-16.13308	513.16931	-63.48695	1352.74890	-890.76910	
3388	33.870	-850.85205	40.23359	-630.42316	719.37958	41.05263	-635.63617	-758.67682	-14.12075	503.56918	682.94739	-16.19278	513.16229	-63.51785	1352.90015	-891.26807	
3389	33.880	-850.74170	40.45983	-630.29755	719.32227	41.11147	-635.54761	-758.18109	-14.80445	503.57974	682.97717	-16.16400	513.20654	-63.47217	1353.07568	-891.84241	
3390	33.890	-850.78632	40.61828	-630.32715	719.25970	41.32749	-635.54010	-758.65607	-14.04728	503.38797	683.06238	-16.21350	513.22247	-63.51437	1353.27380	-892.21057	
3391	33.900	-850.80353	40.69814	-630.18890	719.34949	41.46922	-635.49030	-758.53955	-14.19627	503.46625	683.00781	-16.27991	513.25305	-63.59991	1353.45544	-892.29791	
3392	33.910	-850.73480	40.77979	-630.24817	719.38666	41.54274	-635.47461	-758.41644	-14.48228	503.42975	682.97668	-16.38469	513.25006	-63.45358	1353.55017	-892.18170	
3393	33.920	-850.73486	40.74315	-630.23071	719.39288	41.54836	-635.43457	-758.44604	-14.57676	503.57114	682.97876	-16.42541	513.26031	-63.40465	1353.53906	-891.71002	
3394	33.930	-850.74268	40.76629	-630.19104	719.31329	41.54523	-635.39160	-758.54297	-14.55555	503.67828	683.25122	-16.49157	513.11731	-63.64275	1353.37244	-890.95129	
3395	33.940	-850.73944	40.99551	-630.04993	719.24701	41.59847	-635.43494	-758.66901	-14.18093	503.58817	683.30676	-16.36946	513.11975	-63.72188	1353.51489	-890.47998	
3396	33.950	-850.71442	41.27563	-629.98901	719.24072	41.70495	-635.45599	-758.63263	-14.17497	503.59747	683.06049	-16.36834	513.25922	-63.72773	1353.48755	-890.07404	
3397	33.960	-850.67651	41.13169	-629.87714	719.47461	41.56674	-635.43719	-758.61542	-14.23086	503.60077	683.37848	-16.47169	513.13245	-63.67871	1353.51172	-889.79382	
3398	33.970	-850.66742	40.93121	-630.08502	719.64825	41.42159	-635.42358	-758.61517	-14.32143	503.66315	683.41156	-16.53985	513.10205	-63.71074	1353.54590	-889.65320	
3399	33.980	-850.51892	40.81821	-630.23389	719.75262	41.59406	-635.39130	-758.51880	-14.30052	503.67203	683.31476	-16.58445	513.26031	-63.43963	1353.50854	-889.73560	
3400	33.990	-850.20636	40.90850	-629.95081	719.95593	41.53913	-635.34540	-758.30646	-14.42995	503.65402	684.13647	-16.72867	513.10461	-63.12053	1353.55249	-889.94720	
3401	34.000	-850.03101	41.14585	-629.91968	720.15076	41.47147	-635.32672	-758.11865	-14.39631	503.63931	684.58826	-16.58175	513.22491	-63.16504	1353.68469	-890.39459	
3402	34.010	-849.91144	41.21660	-629.86346	720.26599	41.51767	-635.37146	-757.83423	-14.19429	503.70712	684.82825	-16.52412	513.23621	-62.90163	1353.77820	-890.69543	
3403	34.020	-849.65912	41.13688	-630.09692	720.35071	41.66421	-635.42627	-757.57080	-14.16433	503.64804	684.89056	-16.57856	513.24237	-62.46867	1353.75330	-891.11768	
3404	34.030	-849.19122	40.93578	-630.12817	720.61713	41.49678	-635.43634	-757.28021	-14.16749	503.59808	684.96045	-16.60432	513.22443	-62.16759	1353.52478	-891.16272	
3405	34.040	-848.81665	40.78771	-630.16449	720.89502	41.24700	-635.47540	-756.94812	-14.25257	503.55051	685.27069	-16.54957	513.17163	-61.85205	1353.34204	-891.10870	
3406	34.050	-848.37244	40.78360	-630.13885	721.22473	41.08786	-635.53174	-756.65808	-14.18261	503.52338	685.49286	-16.50692	513.13269	-61.41372	1353.17151	-891.03241	
3407	34.060	-848.04718	40.64211	-630.02649	721.56573	41.11533	-635.62738	-756.28748	-14.12324	503.53629	685.80615	-16.29618	513.16852	-60.91920	1352.98926	-890.87323	
3408	34.070	-847.88367	40.51206	-630.25366	722.08142	41.00808	-635.71277	-755.92450	-13.99973	503.58817	685.93036	-16.19056	513.16193	-60.69858	1352.92615	-890.93927	
3409	34.080	-847.56543	40.65094	-630.11395	722.48035	41.00816	-635.76672	-755.64850	-13.96487	503.52780	686.31665	-16.21134	513.02179	-60.50481	1352.91919	-891.07440	
